<svg width="70" height="70" viewBox="0 0 70 70" fill="none" xmlns="http://www.w3.org/2000/svg">
<g clip-path="url(#clip0_89_4499)">
<g filter="url(#filter0_d_89_4499)">
<path fill-rule="evenodd" clip-rule="evenodd" d="M35.0003 4.91669C18.3858 4.91669 4.91699 18.3855 4.91699 35C4.91699 51.6146 18.3858 65.0834 35.0003 65.0834C51.6149 65.0834 65.0837 51.6146 65.0837 35C65.0837 18.3855 51.6149 4.91669 35.0003 4.91669ZM0.916992 35C0.916992 16.1763 16.1766 0.916687 35.0003 0.916687C53.824 0.916687 69.0837 16.1763 69.0837 35C69.0837 53.8237 53.824 69.0834 35.0003 69.0834C16.1766 69.0834 0.916992 53.8237 0.916992 35Z" fill="#F4CC13"/>
</g>
<path fill-rule="evenodd" clip-rule="evenodd" d="M53.8173 21.8282C54.6486 22.5556 54.7328 23.8191 54.0055 24.6503L33.5888 47.9837C33.2243 48.4003 32.7034 48.6471 32.1502 48.6656C31.597 48.684 31.0609 48.4723 30.6694 48.0809L19.0028 36.4142C18.2217 35.6332 18.2217 34.3668 19.0028 33.5858C19.7838 32.8047 21.0502 32.8047 21.8312 33.5858L31.9862 43.7408L50.9952 22.0163C51.7225 21.1851 52.9861 21.1008 53.8173 21.8282Z" fill="#F4CC13"/>
</g>
<defs>
<filter id="filter0_d_89_4499" x="-3.08301" y="0.916687" width="76.1667" height="76.1667" filterUnits="userSpaceOnUse" color-interpolation-filters="sRGB">
<feFlood flood-opacity="0" result="BackgroundImageFix"/>
<feColorMatrix in="SourceAlpha" type="matrix" values="0 0 0 0 0 0 0 0 0 0 0 0 0 0 0 0 0 0 127 0" result="hardAlpha"/>
<feOffset dy="4"/>
<feGaussianBlur stdDeviation="2"/>
<feComposite in2="hardAlpha" operator="out"/>
<feColorMatrix type="matrix" values="0 0 0 0 0 0 0 0 0 0 0 0 0 0 0 0 0 0 0.25 0"/>
<feBlend mode="normal" in2="BackgroundImageFix" result="effect1_dropShadow_89_4499"/>
<feBlend mode="normal" in="SourceGraphic" in2="effect1_dropShadow_89_4499" result="shape"/>
</filter>
<clipPath id="clip0_89_4499">
<rect width="70" height="70" fill="white"/>
</clipPath>
</defs>
</svg>
