<svg width="47" height="47" viewBox="0 0 47 47" fill="none" xmlns="http://www.w3.org/2000/svg">
<g filter="url(#filter0_d_89_4618)">
<path d="M23.5 35C29.8513 35 35 29.8513 35 23.5C35 17.1487 29.8513 12 23.5 12C17.1487 12 12 17.1487 12 23.5C12 29.8513 17.1487 35 23.5 35Z" stroke="#F4CC13" stroke-width="1.42829" stroke-miterlimit="10" stroke-linecap="round" stroke-linejoin="round"/>
<path d="M24.3102 22.7315L26.2044 20.938" stroke="#F4CC13" stroke-width="1.42829" stroke-miterlimit="10" stroke-linecap="round" stroke-linejoin="round"/>
<path d="M18.7328 18.3716L22.6684 22.6053" stroke="#F4CC13" stroke-width="1.42829" stroke-miterlimit="10" stroke-linecap="round" stroke-linejoin="round"/>
<path d="M24.5544 23.5C24.5544 24.0839 24.0839 24.5543 23.5001 24.5543C22.9163 24.5543 22.4459 24.0839 22.4459 23.5C22.4459 22.9162 22.9163 22.4458 23.5001 22.4458C24.0839 22.4458 24.5544 22.9204 24.5544 23.5Z" stroke="#F4CC13" stroke-width="1.42829" stroke-miterlimit="10" stroke-linecap="round" stroke-linejoin="round"/>
<path d="M23.5 14.8225V13.3608" stroke="#F4CC13" stroke-width="1.42829" stroke-miterlimit="10" stroke-linecap="round" stroke-linejoin="round"/>
<path d="M23.5 33.6516V32.1899" stroke="#F4CC13" stroke-width="1.42829" stroke-miterlimit="10" stroke-linecap="round" stroke-linejoin="round"/>
<path d="M32.1855 23.5083H33.6472" stroke="#F4CC13" stroke-width="1.42829" stroke-miterlimit="10" stroke-linecap="round" stroke-linejoin="round"/>
<path d="M13.3569 23.5083H14.8186" stroke="#F4CC13" stroke-width="1.42829" stroke-miterlimit="10" stroke-linecap="round" stroke-linejoin="round"/>
</g>
<defs>
<filter id="filter0_d_89_4618" x="0.285858" y="0.285645" width="46.4283" height="46.4287" filterUnits="userSpaceOnUse" color-interpolation-filters="sRGB">
<feFlood flood-opacity="0" result="BackgroundImageFix"/>
<feColorMatrix in="SourceAlpha" type="matrix" values="0 0 0 0 0 0 0 0 0 0 0 0 0 0 0 0 0 0 127 0" result="hardAlpha"/>
<feOffset/>
<feGaussianBlur stdDeviation="5.5"/>
<feColorMatrix type="matrix" values="0 0 0 0 0.968627 0 0 0 0 0.847059 0 0 0 0 0.286275 0 0 0 0.7 0"/>
<feBlend mode="normal" in2="BackgroundImageFix" result="effect1_dropShadow_89_4618"/>
<feBlend mode="normal" in="SourceGraphic" in2="effect1_dropShadow_89_4618" result="shape"/>
</filter>
</defs>
</svg>
