<svg width="17" height="17" viewBox="0 0 17 17" fill="none" xmlns="http://www.w3.org/2000/svg">
<path d="M0.765615 0.765584C1.05863 0.472661 1.45598 0.308105 1.8703 0.308105C2.28462 0.308105 2.68198 0.472661 2.97499 0.765584L8.49999 6.29058L14.025 0.765584C14.3197 0.480962 14.7144 0.323471 15.1241 0.327031C15.5337 0.330591 15.9256 0.494918 16.2153 0.784618C16.505 1.07432 16.6694 1.46621 16.6729 1.87589C16.6765 2.28558 16.519 2.68027 16.2344 2.97496L10.7094 8.49996L16.2344 14.025C16.519 14.3196 16.6765 14.7143 16.6729 15.124C16.6694 15.5337 16.505 15.9256 16.2153 16.2153C15.9256 16.505 15.5337 16.6693 15.1241 16.6729C14.7144 16.6764 14.3197 16.519 14.025 16.2343L8.49999 10.7093L2.97499 16.2343C2.6803 16.519 2.28561 16.6764 1.87593 16.6729C1.46624 16.6693 1.07435 16.505 0.784648 16.2153C0.494948 15.9256 0.330622 15.5337 0.327062 15.124C0.323502 14.7143 0.480993 14.3196 0.765615 14.025L6.29061 8.49996L0.765615 2.97496C0.472691 2.68195 0.308136 2.28459 0.308136 1.87027C0.308136 1.45595 0.472691 1.0586 0.765615 0.765584Z" fill="url(#paint0_linear_94_19)"/>
<defs>
<linearGradient id="paint0_linear_94_19" x1="8.49055" y1="0.308105" x2="8.49055" y2="16.6729" gradientUnits="userSpaceOnUse">
<stop stop-color="#F4CC13"/>
<stop offset="1" stop-color="#FFC700"/>
</linearGradient>
</defs>
</svg>
