<svg width="70" height="70" viewBox="0 0 70 70" fill="none" xmlns="http://www.w3.org/2000/svg">
<path d="M5.83301 29.1667C22.1663 44.7213 47.833 44.7213 64.1663 29.1667" stroke="#F4CC13" stroke-width="4" stroke-miterlimit="10" stroke-linecap="round" stroke-linejoin="round"/>
<path d="M35 40.8333V46.6666" stroke="#F4CC13" stroke-width="4" stroke-miterlimit="10" stroke-linecap="round" stroke-linejoin="round"/>
<path d="M58.333 64.1667H11.6663C8.44342 64.1667 5.83301 61.5563 5.83301 58.3333V23.3333C5.83301 20.1104 8.44342 17.5 11.6663 17.5H58.333C61.5559 17.5 64.1663 20.1104 64.1663 23.3333V58.3333C64.1663 61.5563 61.5559 64.1667 58.333 64.1667Z" stroke="#F4CC13" stroke-width="4" stroke-miterlimit="10" stroke-linecap="round" stroke-linejoin="round"/>
<path d="M23.333 17.5V11.6666C23.333 8.44373 25.9434 5.83331 29.1663 5.83331H40.833C44.0559 5.83331 46.6663 8.44373 46.6663 11.6666V17.5" stroke="#F4CC13" stroke-width="4" stroke-miterlimit="10" stroke-linecap="round" stroke-linejoin="round"/>
</svg>
