<svg width="27" height="27" viewBox="0 0 27 27" fill="none" xmlns="http://www.w3.org/2000/svg">
<path d="M13.5 25.3125C10.3671 25.3125 7.36257 24.068 5.1473 21.8527C2.93203 19.6374 1.6875 16.6329 1.6875 13.5C1.6875 10.3671 2.93203 7.36257 5.1473 5.1473C7.36257 2.93203 10.3671 1.6875 13.5 1.6875C16.6329 1.6875 19.6374 2.93203 21.8527 5.1473C24.068 7.36257 25.3125 10.3671 25.3125 13.5C25.3125 16.6329 24.068 19.6374 21.8527 21.8527C19.6374 24.068 16.6329 25.3125 13.5 25.3125ZM13.5 27C17.0804 27 20.5142 25.5777 23.0459 23.0459C25.5777 20.5142 27 17.0804 27 13.5C27 9.91958 25.5777 6.4858 23.0459 3.95406C20.5142 1.42232 17.0804 0 13.5 0C9.91958 0 6.4858 1.42232 3.95406 3.95406C1.42232 6.4858 0 9.91958 0 13.5C0 17.0804 1.42232 20.5142 3.95406 23.0459C6.4858 25.5777 9.91958 27 13.5 27Z" fill="white" fill-opacity="0.5"/>
<g filter="url(#filter0_d_89_4576)">
<path d="M10.5823 8.53026C10.7203 8.45919 10.8753 8.42758 11.0301 8.43889C11.1849 8.4502 11.3336 8.50401 11.4598 8.59438L17.3661 12.8131C17.4754 12.8912 17.5646 12.9942 17.6261 13.1137C17.6876 13.2332 17.7197 13.3656 17.7197 13.4999C17.7197 13.6343 17.6876 13.7667 17.6261 13.8862C17.5646 14.0057 17.4754 14.1087 17.3661 14.1868L11.4598 18.4055C11.3336 18.4958 11.185 18.5496 11.0303 18.5609C10.8755 18.5722 10.7207 18.5406 10.5827 18.4696C10.4448 18.3987 10.329 18.291 10.2483 18.1585C10.1675 18.026 10.1249 17.8738 10.125 17.7187V9.2812C10.1248 9.12609 10.1674 8.97393 10.2481 8.84145C10.3288 8.70897 10.4444 8.6013 10.5823 8.53026Z" fill="#F4CC13"/>
</g>
<defs>
<filter id="filter0_d_89_4576" x="2.125" y="0.436646" width="23.5947" height="26.1265" filterUnits="userSpaceOnUse" color-interpolation-filters="sRGB">
<feFlood flood-opacity="0" result="BackgroundImageFix"/>
<feColorMatrix in="SourceAlpha" type="matrix" values="0 0 0 0 0 0 0 0 0 0 0 0 0 0 0 0 0 0 127 0" result="hardAlpha"/>
<feOffset/>
<feGaussianBlur stdDeviation="4"/>
<feColorMatrix type="matrix" values="0 0 0 0 0.956863 0 0 0 0 0.823529 0 0 0 0 0.2 0 0 0 0.7 0"/>
<feBlend mode="normal" in2="BackgroundImageFix" result="effect1_dropShadow_89_4576"/>
<feBlend mode="normal" in="SourceGraphic" in2="effect1_dropShadow_89_4576" result="shape"/>
</filter>
</defs>
</svg>
