<svg width="140" height="49" viewBox="0 0 140 49" fill="none" xmlns="http://www.w3.org/2000/svg">
<g clip-path="url(#clip0_89_4534)">
<g filter="url(#filter0_d_89_4534)">
<path d="M49.2705 14.5734V33.6272C49.2705 35.9886 51.8695 37.4269 53.8703 36.1727L68.7323 26.8576C70.5883 25.6942 70.6155 22.9997 68.7834 21.7991L53.9214 12.0605C51.9234 10.7513 49.2705 12.1846 49.2705 14.5734Z" fill="url(#paint0_linear_89_4534)"/>
</g>
<path d="M22.6992 28.4425C22.6992 29.1701 22.532 29.7797 22.1977 30.2713C21.3718 31.3331 20.6541 32.0509 20.0445 32.4245C19.4152 32.7982 18.7663 32.985 18.0977 32.985H13.6142C12.9456 32.985 12.2967 32.7982 11.6674 32.4245C11.3724 32.2475 10.989 31.9231 10.517 31.4511C10.0647 30.9595 9.73045 30.5662 9.51414 30.2713C9.17984 29.7797 9.0127 29.1701 9.0127 28.4425V19.564C9.0127 18.8167 9.17984 18.1973 9.51414 17.7057C9.73045 17.4107 10.0647 17.0273 10.517 16.5553C10.989 16.0834 11.3724 15.7589 11.6674 15.5819C12.2967 15.2083 12.9456 15.0215 13.6142 15.0215H18.0977C18.7663 15.0215 19.4152 15.2083 20.0445 15.5819C20.5951 15.8966 21.3128 16.6045 22.1977 17.7057C22.532 18.1973 22.6992 18.8167 22.6992 19.564V28.4425ZM19.1006 28.4425V19.564C18.8253 19.092 18.4713 18.7282 18.0387 18.4726H13.7027C13.2701 18.7872 12.9063 19.1609 12.6113 19.5935V28.4425C13.0046 28.9734 13.3585 29.3372 13.6732 29.5339H18.0092C18.3828 29.2585 18.7466 28.8948 19.1006 28.4425Z" fill="white"/>
<path d="M130.854 28.4425C130.854 29.1701 130.687 29.7797 130.352 30.2713C129.526 31.3331 128.809 32.0509 128.199 32.4245C127.57 32.7982 126.921 32.985 126.252 32.985H121.769C121.1 32.985 120.451 32.7982 119.822 32.4245C119.527 32.2475 119.144 31.9231 118.672 31.4511C118.219 30.9595 117.885 30.5662 117.669 30.2713C117.335 29.7797 117.167 29.1701 117.167 28.4425V19.564C117.167 18.8167 117.335 18.1973 117.669 17.7057C117.885 17.4107 118.219 17.0273 118.672 16.5553C119.144 16.0834 119.527 15.7589 119.822 15.5819C120.451 15.2083 121.1 15.0215 121.769 15.0215H126.252C126.921 15.0215 127.57 15.2083 128.199 15.5819C128.75 15.8966 129.468 16.6045 130.352 17.7057C130.687 18.1973 130.854 18.8167 130.854 19.564V28.4425ZM127.255 28.4425V19.564C126.98 19.092 126.626 18.7282 126.193 18.4726H121.857C121.425 18.7872 121.061 19.1609 120.766 19.5935V28.4425C121.159 28.9734 121.513 29.3372 121.828 29.5339H126.164C126.538 29.2585 126.901 28.8948 127.255 28.4425Z" fill="white"/>
<path d="M33.8109 18.4726C33.6733 18.5513 33.5061 18.6791 33.3095 18.8561C33.1325 19.0134 32.985 19.1609 32.867 19.2985C32.7687 19.4165 32.7196 19.4853 32.7196 19.505V21.0683L32.808 21.2453L40.3002 23.2806C41.0671 23.4969 41.6669 23.9295 42.0995 24.5784C42.5321 25.2273 42.7484 25.9353 42.7484 26.7022V28.4425C42.7484 29.1111 42.5714 29.7207 42.2175 30.2713C42.0208 30.5662 41.6866 30.9595 41.2146 31.4511C40.7427 31.9231 40.3592 32.2475 40.0642 32.4245C39.3956 32.7982 38.7467 32.985 38.1175 32.985H33.6045C32.1886 32.985 30.8908 32.1492 29.7109 30.4777C29.2783 29.8878 28.944 29.2586 28.708 28.59L32.0411 27.5576C32.6114 28.5801 33.1227 29.2389 33.575 29.5339H38.0585C38.1961 29.4552 38.3534 29.3372 38.5304 29.1799C38.7074 29.0226 38.845 28.8849 38.9434 28.7669C39.0613 28.6293 39.1203 28.5506 39.1203 28.531V26.7907L39.0318 26.6137C38.3239 26.417 37.1244 26.0926 35.4333 25.6403C33.7618 25.188 32.4738 24.8439 31.5692 24.6079C30.7826 24.3916 30.173 23.959 29.7404 23.3101C29.3274 22.6611 29.121 21.9532 29.121 21.1863V19.564C29.121 18.8167 29.2783 18.1973 29.5929 17.7057C29.7896 17.4304 30.1238 17.0568 30.5958 16.5848C31.0874 16.1129 31.4905 15.7786 31.8052 15.5819C32.4738 15.2083 33.1128 15.0215 33.7224 15.0215H37.911C39.2875 15.0215 40.5755 15.8474 41.775 17.4992C42.1683 18.0498 42.5026 18.6791 42.7779 19.387L39.4448 20.3309C39.0712 19.5443 38.5501 18.9249 37.8815 18.4726H33.8109Z" fill="white"/>
<path d="M91.0904 22.3771C91.0904 23.1046 90.9035 23.7437 90.5299 24.2943C90.4119 24.491 90.1661 24.7663 89.7925 25.1202C89.4385 25.4742 89.1534 25.7298 88.9371 25.8872C88.3078 26.3394 87.5704 26.5656 86.7248 26.5656H81.7104V33.3203H78.1118V15.6223H86.7248C87.5901 15.6223 88.3275 15.8485 88.9371 16.3007C89.527 16.753 90.058 17.2938 90.5299 17.9231C90.9035 18.4343 91.0904 19.0833 91.0904 19.8698V22.3771ZM87.4918 22.4066V19.7813C87.2951 19.4667 87.0395 19.2307 86.7248 19.0734H81.7104V23.1145H86.7248C86.7838 23.1145 86.9018 23.0358 87.0788 22.8785C87.2755 22.7015 87.4131 22.5442 87.4918 22.4066Z" fill="white"/>
<path d="M110.317 22.3771C110.317 23.1046 110.131 23.7437 109.757 24.2943C109.639 24.491 109.393 24.7663 109.02 25.1202C108.666 25.4742 108.38 25.7298 108.164 25.8872C108.007 26.0051 107.771 26.1428 107.456 26.3001L111.291 33.3203H107.279L103.769 26.5656H100.937V33.3203H97.3389V15.6223H105.952C106.817 15.6223 107.555 15.8485 108.164 16.3007C108.754 16.753 109.285 17.2938 109.757 17.9231C110.131 18.4343 110.317 19.0833 110.317 19.8698V22.3771ZM106.719 22.4066V19.7813C106.522 19.4667 106.267 19.2307 105.952 19.0734H100.937V23.1145H105.952C106.011 23.1145 106.129 23.0358 106.306 22.8785C106.503 22.7015 106.64 22.5442 106.719 22.4066Z" fill="white"/>
</g>
<defs>
<filter id="filter0_d_89_4534" x="28.2405" y="-9.46596" width="62.9306" height="67.1322" filterUnits="userSpaceOnUse" color-interpolation-filters="sRGB">
<feFlood flood-opacity="0" result="BackgroundImageFix"/>
<feColorMatrix in="SourceAlpha" type="matrix" values="0 0 0 0 0 0 0 0 0 0 0 0 0 0 0 0 0 0 127 0" result="hardAlpha"/>
<feOffset/>
<feGaussianBlur stdDeviation="10.515"/>
<feColorMatrix type="matrix" values="0 0 0 0 0.956863 0 0 0 0 0.823529 0 0 0 0 0.2 0 0 0 0.7 0"/>
<feBlend mode="normal" in2="BackgroundImageFix" result="effect1_dropShadow_89_4534"/>
<feBlend mode="normal" in="SourceGraphic" in2="effect1_dropShadow_89_4534" result="shape"/>
</filter>
<linearGradient id="paint0_linear_89_4534" x1="60.9872" y1="9.01294" x2="60.9872" y2="39.0559" gradientUnits="userSpaceOnUse">
<stop stop-color="#F4D233"/>
<stop offset="1" stop-color="#FDAF4D"/>
</linearGradient>
<clipPath id="clip0_89_4534">
<rect width="140" height="48.0687" fill="white"/>
</clipPath>
</defs>
</svg>
